<?xml version="1.0" encoding="utf-8"?>
<!-- Generator: Adobe Illustrator 16.0.0, SVG Export Plug-In . SVG Version: 6.00 Build 0)  -->
<!DOCTYPE svg PUBLIC "-//W3C//DTD SVG 1.1//EN" "http://www.w3.org/Graphics/SVG/1.1/DTD/svg11.dtd">
<svg version="1.1" id="Layer_1" xmlns="http://www.w3.org/2000/svg" xmlns:xlink="http://www.w3.org/1999/xlink" x="0px" y="0px"
	 width="24px" height="24px" viewBox="0 0 24 24" enable-background="new 0 0 24 24" xml:space="preserve">
<path fill="none" d="M0,0h24v24H0V0z"/>
<rect x="3" y="16" fill="#FFFFFF" width="18" height="2"/>
<path fill="#FFFFFF" d="M12.32,11c-0.108,0.485-0.309,0.937-0.549,1.367c0.286,0.184,0.542,0.397,0.771,0.633H21v-2H12.32z"/>
<path fill="#FFFFFF" d="M10.954,6c0.576,0.551,0.985,1.245,1.231,2H21V6H10.954z"/>
<path fill="#FFFFFF" d="M12.322,15.997c0.26-0.322,0.56-0.612,0.905-0.862l-2.716-2.649h-0.474l-0.167-0.157
	c0.587-0.669,0.942-1.534,0.942-2.478c0-2.101-1.748-3.804-3.905-3.804c-2.155,0-3.905,1.703-3.905,3.804
	c0,2.1,1.75,3.804,3.905,3.804c0.968,0,1.857-0.344,2.541-0.918l0.165,0.163v0.462L12.322,15.997z M6.908,12.485
	c-1.496,0-2.704-1.177-2.704-2.635c0-1.457,1.208-2.633,2.704-2.633c1.496,0,2.705,1.176,2.705,2.633
	C9.613,11.308,8.404,12.485,6.908,12.485z"/>
</svg>
